<svg width="145" height="35" viewBox="0 0 145 35" fill="none" xmlns="http://www.w3.org/2000/svg">
<path d="M41.2795 28.1307C41.2588 28.132 41.2381 28.129 41.2187 28.1217C41.1993 28.1145 41.1816 28.1032 41.1669 28.0887C41.1521 28.0742 41.1406 28.0567 41.1331 28.0374C41.1256 28.0181 41.1222 27.9974 41.1232 27.9767V6.48188C41.1222 6.46119 41.1256 6.44052 41.1331 6.42122C41.1406 6.40192 41.1521 6.38443 41.1669 6.3699C41.1816 6.35536 41.1993 6.34411 41.2187 6.33688C41.2381 6.32965 41.2588 6.3266 41.2795 6.32794H50.3762C53.9682 6.32794 56.4756 9.08244 56.4756 12.7069C56.4756 16.3313 53.9682 19.0858 50.3762 19.0858H43.4464C43.4259 19.0848 43.4054 19.0881 43.3863 19.0955C43.3672 19.1029 43.3498 19.1142 43.3353 19.1287C43.3208 19.1432 43.3095 19.1606 43.3021 19.1797C43.2947 19.1988 43.2914 19.2193 43.2924 19.2398V27.9744C43.2938 27.995 43.2908 28.0156 43.2835 28.0349C43.2763 28.0542 43.265 28.0717 43.2504 28.0863C43.2358 28.1009 43.2183 28.1122 43.199 28.1194C43.1797 28.1267 43.1591 28.1297 43.1385 28.1283L41.2795 28.1307ZM43.4464 8.18682C43.4257 8.18579 43.405 8.18915 43.3857 8.19667C43.3664 8.20419 43.3489 8.2157 43.3344 8.23046C43.3199 8.24522 43.3086 8.26288 43.3014 8.28229C43.2941 8.3017 43.2911 8.32242 43.2924 8.34309V17.0754C43.2911 17.0959 43.2941 17.1166 43.3013 17.1359C43.3086 17.1552 43.3199 17.1727 43.3345 17.1873C43.349 17.2018 43.3666 17.2131 43.3859 17.2204C43.4052 17.2276 43.4258 17.2307 43.4464 17.2293H50.0753C52.676 17.2293 54.3181 14.9389 54.3181 12.7092C54.3181 10.4795 52.6853 8.18682 50.0753 8.18682H43.4464Z" fill="#000"/>
<path d="M64.4468 12.1389C68.6896 12.1389 71.3533 14.0048 71.3533 17.7132V24.1855C71.3533 25.7971 71.7568 26.2612 73.056 26.2612H73.3966C73.4172 26.2599 73.4379 26.2629 73.4574 26.2702C73.4768 26.2774 73.4944 26.2887 73.5092 26.3032C73.5239 26.3177 73.5355 26.3352 73.543 26.3545C73.5505 26.3738 73.5539 26.3945 73.5528 26.4152V27.9638C73.5539 27.9845 73.5505 28.0052 73.543 28.0245C73.5355 28.0438 73.5239 28.0613 73.5092 28.0758C73.4944 28.0904 73.4768 28.1016 73.4574 28.1089C73.4379 28.1161 73.4172 28.1191 73.3966 28.1178H73.056C70.9195 28.1178 70.0518 27.53 69.527 26.2519C69.5213 26.2219 69.507 26.1943 69.4858 26.1723C69.4646 26.1504 69.4375 26.1352 69.4077 26.1285C69.3779 26.1218 69.3469 26.1239 69.3183 26.1347C69.2898 26.1454 69.265 26.1643 69.2471 26.1889C68.7806 26.6554 67.2971 28.3254 63.4555 28.4187C59.369 28.4187 57.1392 26.4688 57.1392 23.649C57.1392 20.8292 59.369 19.0053 63.7657 19.0053H67.6377C68.629 19.0053 69.1864 19.0053 69.1864 17.7039C69.1864 16.0922 68.8132 13.9885 64.4468 13.9885C61.3493 13.9885 59.9265 15.2876 59.9265 17.7342C59.9275 17.755 59.9241 17.7758 59.9166 17.7952C59.9091 17.8146 59.8976 17.8322 59.8829 17.8469C59.8682 17.8616 59.8506 17.8731 59.8312 17.8806C59.8118 17.8881 59.791 17.8915 59.7702 17.8905H57.9042C57.8835 17.8915 57.8629 17.8881 57.8436 17.8806C57.8243 17.8731 57.8068 17.8616 57.7922 17.8468C57.7777 17.8321 57.7664 17.8144 57.7592 17.795C57.752 17.7756 57.7489 17.7549 57.7503 17.7342C57.7573 13.9651 60.7312 12.1389 64.4468 12.1389ZM69.1864 21.0275C69.1874 21.0067 69.1841 20.9859 69.1766 20.9665C69.1691 20.9471 69.1576 20.9295 69.1429 20.9147C69.1282 20.9 69.1105 20.8886 69.0911 20.8811C69.0717 20.8736 69.0509 20.8702 69.0301 20.8712H63.8987C59.9661 20.8712 59.3154 22.2963 59.3154 23.6583C59.3154 25.0834 60.4933 26.5691 63.4648 26.5691C67.5234 26.5691 69.1328 23.9382 69.1958 21.7692L69.1864 21.0275Z" fill="#000"/>
<path d="M89.7506 27.0468V27.5133C89.7506 31.9447 86.9633 34.6059 82.4103 34.6059C78.508 34.6059 75.8117 32.5301 75.5038 30.1161C75.5025 30.0955 75.5055 30.0748 75.5127 30.0554C75.52 30.0359 75.5312 30.0183 75.5458 30.0035C75.5603 29.9888 75.5778 29.9773 75.5971 29.9697C75.6164 29.9622 75.6371 29.9589 75.6578 29.9599H77.4538C77.5016 29.9606 77.548 29.9759 77.5868 30.0039C77.6256 30.0318 77.6549 30.071 77.6707 30.1161C77.9809 31.322 79.5903 32.747 82.4103 32.747C86.4968 32.747 87.5208 30.2071 87.5814 27.5133V26.3051C87.575 26.2759 87.5604 26.2491 87.5392 26.2279C87.5181 26.2068 87.4913 26.1921 87.4621 26.1858C87.4328 26.1794 87.4024 26.1815 87.3743 26.1919C87.3463 26.2023 87.3218 26.2206 87.3038 26.2445C86.6531 27.0188 85.1043 28.4742 82.0697 28.4742C77.701 28.4742 74.6968 25.1599 74.6968 20.3297C74.6968 15.4994 77.5471 12.1851 82.0697 12.1851C83.0499 12.1682 84.0226 12.358 84.9244 12.7422C85.8263 13.1264 86.637 13.6963 87.3038 14.4148C87.4275 14.5385 87.5511 14.4755 87.5814 14.3519L87.8916 12.6493C87.9219 12.556 87.9523 12.493 88.0456 12.493H89.5943C89.6151 12.492 89.6359 12.4953 89.6553 12.5028C89.6747 12.5103 89.6923 12.5218 89.7071 12.5365C89.7218 12.5513 89.7332 12.5689 89.7407 12.5883C89.7482 12.6077 89.7516 12.6285 89.7506 12.6493V27.0468ZM82.3776 26.613C85.8484 26.613 87.5814 24.0474 87.5814 20.3157C87.5814 16.5839 85.8484 14.0183 82.3776 14.0183C78.9069 14.0183 76.866 16.5839 76.866 20.3157C76.866 24.0474 78.9092 26.613 82.3776 26.613Z" fill="#000"/>
<path d="M100.279 28.429C95.4186 28.429 92.5986 25.1147 92.5986 20.2844C92.5986 15.4542 95.4186 12.1376 100.279 12.1376C105.14 12.1376 107.96 15.4518 107.96 20.2844C107.96 25.117 105.112 28.429 100.279 28.429ZM100.279 13.9964C96.8414 13.9964 94.7678 16.562 94.7678 20.2938C94.7678 24.0255 96.8414 26.5911 100.279 26.5911C103.718 26.5911 105.793 24.0255 105.793 20.2938C105.793 16.562 103.718 13.9964 100.279 13.9964Z" fill="#000"/>
<path d="M125.332 27.9759C125.333 27.9964 125.33 28.0171 125.323 28.0364C125.316 28.0557 125.304 28.0732 125.29 28.0878C125.275 28.1024 125.258 28.1136 125.238 28.1209C125.219 28.1281 125.198 28.1312 125.178 28.1298H123.629C123.536 28.1298 123.505 28.0692 123.475 27.9759L123.165 26.2733C123.16 26.2417 123.146 26.2126 123.123 26.1903C123.1 26.1681 123.07 26.154 123.039 26.1503C123.007 26.1466 122.975 26.1534 122.948 26.1697C122.92 26.1861 122.899 26.211 122.887 26.2406C122.67 26.5508 121.152 28.44 117.651 28.44C112.82 28.44 110.28 25.1258 110.28 20.2955C110.28 15.4652 112.977 12.1509 117.651 12.1509C121.089 12.1509 122.607 14.0168 122.887 14.411C122.978 14.5649 123.165 14.5043 123.165 14.3807V6.48336C123.164 6.46279 123.167 6.44216 123.174 6.42286C123.181 6.40356 123.192 6.38603 123.207 6.37146C123.222 6.35688 123.239 6.34558 123.258 6.33834C123.278 6.33109 123.298 6.32805 123.319 6.32942H125.185C125.205 6.32805 125.226 6.33109 125.245 6.33834C125.265 6.34558 125.282 6.35688 125.297 6.37146C125.311 6.38603 125.323 6.40356 125.33 6.42286C125.337 6.44216 125.34 6.46279 125.339 6.48336L125.332 27.9759ZM117.961 26.5765C121.43 26.5765 123.165 24.0109 123.165 20.2792C123.165 16.5474 121.43 13.9818 117.961 13.9818C114.493 13.9818 112.449 16.5474 112.449 20.2792C112.449 24.0109 114.493 26.5811 117.961 26.5811V26.5765Z" fill="#000"/>
<path d="M135.896 12.0812C140.139 12.0812 142.8 13.9471 142.8 17.6555V24.1277C142.8 25.737 143.204 26.2012 144.505 26.2012H144.846C144.867 26.2001 144.887 26.2035 144.906 26.211C144.926 26.2185 144.943 26.23 144.958 26.2448C144.972 26.2596 144.984 26.2772 144.991 26.2966C144.998 26.316 145.001 26.3368 145 26.3574V27.8991C145.001 27.9197 144.998 27.9403 144.991 27.9596C144.984 27.9789 144.972 27.9964 144.958 28.011C144.943 28.0256 144.926 28.0369 144.906 28.0441C144.887 28.0514 144.866 28.0544 144.846 28.053H144.498C142.362 28.053 141.494 27.4653 140.967 26.1872C140.961 26.1573 140.947 26.1297 140.926 26.1079C140.905 26.086 140.878 26.0709 140.848 26.0644C140.819 26.0579 140.788 26.0604 140.759 26.0714C140.731 26.0825 140.707 26.1016 140.689 26.1265C140.223 26.593 138.737 28.263 134.898 28.3562C130.809 28.3562 128.579 26.4041 128.579 23.5866C128.579 20.7691 130.809 18.9406 135.206 18.9406H139.078C140.069 18.9406 140.626 18.9406 140.626 17.6415C140.626 16.0298 140.256 13.9237 135.889 13.9237C132.792 13.9237 131.366 15.2252 131.366 17.6718C131.368 17.6924 131.365 17.713 131.358 17.7323C131.35 17.7516 131.339 17.7691 131.324 17.7837C131.31 17.7983 131.292 17.8096 131.273 17.8168C131.254 17.8241 131.233 17.8271 131.212 17.8257H129.346C129.326 17.8271 129.305 17.824 129.286 17.8168C129.266 17.8096 129.249 17.7983 129.234 17.7838C129.219 17.7692 129.208 17.7518 129.2 17.7325C129.193 17.7132 129.189 17.6925 129.19 17.6718C129.204 13.9051 132.178 12.0812 135.896 12.0812ZM140.633 20.9674C140.635 20.9468 140.632 20.9262 140.624 20.9069C140.617 20.8876 140.606 20.8701 140.591 20.8555C140.577 20.8409 140.559 20.8296 140.54 20.8224C140.521 20.8151 140.5 20.8121 140.479 20.8135H135.348C131.413 20.8135 130.762 22.2385 130.762 23.6006C130.762 25.0257 131.929 26.5114 134.914 26.5114C138.97 26.5114 140.582 23.8805 140.643 21.7114L140.633 20.9674Z" fill="#000"/>
<path d="M9.896 0.0020752L19.7922 9.89766C17.1675 12.5221 13.6078 13.9965 9.89599 13.9965C6.18421 13.9965 2.62445 12.5221 -0.000184972 9.89766L9.896 0.0020752Z" fill="#000"/>
<path d="M34.6323 9.89563L24.7361 19.7912C22.1115 17.1667 20.637 13.6072 20.637 9.89563C20.637 6.18407 22.1115 2.62452 24.7361 4.85784e-05L34.6323 9.89563Z" fill="#000"/>
<path d="M24.7373 34.6273L14.8411 24.7317C17.4658 22.1073 21.0255 20.6329 24.7373 20.6329C28.4491 20.6329 32.0089 22.1073 34.6335 24.7317L24.7373 34.6273Z" fill="#000"/>
<path d="M0.00732422 24.7352L9.9035 14.8397C12.5281 17.4641 14.0026 21.0237 14.0026 24.7352C14.0026 28.4468 12.5281 32.0063 9.9035 34.6308L0.00732422 24.7352Z" fill="#000"/>
</svg>
